<?xml version="1.0" encoding="utf-8"?>
<!-- Generator: Adobe Illustrator 16.0.0, SVG Export Plug-In . SVG Version: 6.00 Build 0)  -->
<!DOCTYPE svg PUBLIC "-//W3C//DTD SVG 1.1//EN" "http://www.w3.org/Graphics/SVG/1.1/DTD/svg11.dtd">
<svg version="1.1" id="Layer_1" xmlns="http://www.w3.org/2000/svg" xmlns:xlink="http://www.w3.org/1999/xlink" x="0px" y="0px"
	 width="39px" height="36.939px" viewBox="0 0 39 36.939" enable-background="new 0 0 39 36.939" xml:space="preserve">
<g>
	<g>
		<path fill="#FFFFFF" d="M37.366,25.421l-2.682-3.218V7.223c0-1.55-1.262-2.812-2.813-2.812H19.5c-1.55,0-2.812,1.262-2.812,2.812
			v22.495c0,1.55,1.262,2.812,2.812,2.812h8.999v0.563c0,0.149,0.06,0.292,0.165,0.397l2.085,2.084v0.893h1.124v-1.125
			c0-0.149-0.059-0.292-0.165-0.397l-2.084-2.084V23.25c0-0.465,0.378-0.843,0.844-0.843c0.465,0,0.844,0.378,0.844,0.843v3.655
			c0,0.149,0.059,0.293,0.165,0.398l2.249,2.249c0.161,0.161,0.403,0.209,0.612,0.122c0.211-0.087,0.348-0.293,0.348-0.52V23.96
			l1.687,2.024v10.481h1.125V25.781C37.496,25.65,37.45,25.523,37.366,25.421z M28.498,31.405H19.5c-0.93,0-1.687-0.757-1.687-1.687
			v-0.563h10.686V31.405z M33.56,27.798l-1.125-1.125V23.25c0-1.086-0.883-1.968-1.968-1.968s-1.969,0.882-1.969,1.968v4.78H17.813
			V8.91H33.56V27.798z M33.56,7.785H17.813V7.223c0-0.931,0.757-1.687,1.687-1.687h12.373c0.931,0,1.688,0.756,1.688,1.687V7.785z"
			/>
	</g>
</g>
<g>
	<g>
		<path fill="#FFFFFF" d="M24.562,35.341H4.316c-0.93,0-1.688-0.757-1.688-1.687V7.223H7.69c0.311,0,0.563-0.252,0.563-0.563V1.599
			h16.309c0.931,0,1.688,0.757,1.688,1.688h1.125c0-1.55-1.262-2.812-2.813-2.812H7.69c-0.156,0-0.296,0.063-0.398,0.165
			L1.669,6.262C1.567,6.364,1.504,6.505,1.504,6.66v26.994c0,1.55,1.262,2.812,2.812,2.812h20.246c1.551,0,2.813-1.262,2.813-2.812
			h-1.125C26.249,34.584,25.492,35.341,24.562,35.341z M7.127,2.394v3.704H3.424L7.127,2.394z"/>
	</g>
</g>
<g>
	<g>
		<rect x="4.316" y="20.72" fill="#FFFFFF" width="11.247" height="1.125"/>
	</g>
</g>
<g>
	<g>
		<rect x="4.316" y="22.969" fill="#FFFFFF" width="11.247" height="1.125"/>
	</g>
</g>
<g>
	<g>
		<rect x="4.316" y="25.219" fill="#FFFFFF" width="11.247" height="1.125"/>
	</g>
</g>
<g>
	<g>
		<rect x="4.316" y="27.468" fill="#FFFFFF" width="11.247" height="1.125"/>
	</g>
</g>
<g>
	<g>
		<rect x="4.316" y="29.718" fill="#FFFFFF" width="11.247" height="1.124"/>
	</g>
</g>
<g>
	<g>
		<rect x="4.316" y="31.967" fill="#FFFFFF" width="11.247" height="1.125"/>
	</g>
</g>
<g>
	<g>
		<path fill="#FFFFFF" d="M22.313,10.597h-2.25c-0.312,0-0.563,0.252-0.563,0.563v2.25c0,0.31,0.251,0.562,0.563,0.562h2.25
			c0.311,0,0.563-0.252,0.563-0.562v-2.25C22.875,10.849,22.623,10.597,22.313,10.597z M21.75,12.846h-1.125v-1.125h1.125V12.846z"
			/>
	</g>
</g>
<g>
	<g>
		<path fill="#FFFFFF" d="M7.127,8.347h-2.25c-0.311,0-0.562,0.252-0.562,0.563v2.25c0,0.31,0.251,0.562,0.562,0.562h2.25
			c0.311,0,0.563-0.252,0.563-0.562V8.91C7.69,8.599,7.438,8.347,7.127,8.347z M6.565,10.597H5.44V9.472h1.125V10.597z"/>
	</g>
</g>
<g>
	<g>
		<path fill="#FFFFFF" d="M7.127,16.22h-2.25c-0.311,0-0.562,0.252-0.562,0.563v2.25c0,0.311,0.251,0.563,0.562,0.563h2.25
			c0.311,0,0.563-0.252,0.563-0.563v-2.25C7.69,16.472,7.438,16.22,7.127,16.22z M6.565,18.47H5.44v-1.125h1.125V18.47z"/>
	</g>
</g>
<g>
	<g>
		<path fill="#FFFFFF" d="M14.438,8.347h-2.25c-0.311,0-0.563,0.252-0.563,0.563v2.25c0,0.31,0.251,0.562,0.563,0.562h2.25
			c0.311,0,0.562-0.252,0.562-0.562V8.91C15,8.599,14.749,8.347,14.438,8.347z M13.876,10.597h-1.125V9.472h1.125V10.597z"/>
	</g>
</g>
<g>
	<g>
		<path fill="#FFFFFF" d="M31.311,10.597h-2.25c-0.311,0-0.563,0.252-0.563,0.563v2.25c0,0.31,0.252,0.562,0.563,0.562h2.25
			c0.311,0,0.562-0.252,0.562-0.562v-2.25C31.872,10.849,31.621,10.597,31.311,10.597z M30.748,12.846h-1.125v-1.125h1.125V12.846z"
			/>
	</g>
</g>
<g>
	<g>
		<path fill="#FFFFFF" d="M22.313,19.595h-2.25c-0.312,0-0.563,0.252-0.563,0.563v2.25c0,0.31,0.251,0.562,0.563,0.562h2.25
			c0.311,0,0.563-0.252,0.563-0.562v-2.25C22.875,19.847,22.623,19.595,22.313,19.595z M21.75,21.845h-1.125V20.72h1.125V21.845z"/>
	</g>
</g>
<g>
	<g>
		<rect x="19.5" y="15.096" fill="#FFFFFF" width="3.375" height="1.125"/>
	</g>
</g>
<g>
	<g>
		<rect x="23.999" y="10.597" fill="#FFFFFF" width="1.125" height="1.125"/>
	</g>
</g>
<g>
	<g>
		<path fill="#FFFFFF" d="M27.374,15.096v-4.499h-1.125v1.125h-1.125v1.125h1.125v2.812c0,0.311,0.251,0.563,0.563,0.563h2.249
			v-1.125H27.374z"/>
	</g>
</g>
<g>
	<g>
		<rect x="23.999" y="12.846" fill="#FFFFFF" width="1.125" height="3.937"/>
	</g>
</g>
<g>
	<g>
		<rect x="19.5" y="17.345" fill="#FFFFFF" width="1.125" height="1.125"/>
	</g>
</g>
<g>
	<g>
		<rect x="21.75" y="17.345" fill="#FFFFFF" width="1.125" height="1.125"/>
	</g>
</g>
<g>
	<g>
		<rect x="23.999" y="20.157" fill="#FFFFFF" width="1.125" height="2.812"/>
	</g>
</g>
<g>
	<g>
		<rect x="23.999" y="17.907" fill="#FFFFFF" width="1.125" height="1.125"/>
	</g>
</g>
<g>
	<g>
		<rect x="25.124" y="19.032" fill="#FFFFFF" width="1.125" height="1.125"/>
	</g>
</g>
<g>
	<g>
		<rect x="25.124" y="16.783" fill="#FFFFFF" width="1.125" height="1.125"/>
	</g>
</g>
<g>
	<g>
		<rect x="26.249" y="21.282" fill="#FFFFFF" width="1.125" height="1.125"/>
	</g>
</g>
<g>
	<g>
		<rect x="30.186" y="15.096" fill="#FFFFFF" width="1.125" height="1.125"/>
	</g>
</g>
<g>
	<g>
		<path fill="#FFFFFF" d="M29.061,17.345c-0.311,0-0.563,0.252-0.563,0.562v2.813h1.125v-2.25h2.249v-1.125H29.061z"/>
	</g>
</g>
<g>
	<g>
		<rect x="30.748" y="19.595" fill="#FFFFFF" width="1.124" height="1.125"/>
	</g>
</g>
<g>
	<g>
		<rect x="26.249" y="17.907" fill="#FFFFFF" width="1.125" height="1.125"/>
	</g>
</g>
<g>
	<g>
		<polygon fill="#FFFFFF" points="6.565,13.971 6.565,12.846 5.44,12.846 5.44,13.971 4.316,13.971 4.316,15.096 8.814,15.096 
			8.814,13.971 		"/>
	</g>
</g>
<g>
	<g>
		<rect x="8.252" y="8.347" fill="#FFFFFF" width="1.125" height="1.125"/>
	</g>
</g>
<g>
	<g>
		<rect x="8.252" y="10.597" fill="#FFFFFF" width="1.125" height="1.125"/>
	</g>
</g>
<g>
	<g>
		<rect x="9.377" y="9.472" fill="#FFFFFF" width="1.125" height="1.125"/>
	</g>
</g>
<g>
	<g>
		<rect x="8.814" y="15.096" fill="#FFFFFF" width="1.125" height="1.125"/>
	</g>
</g>
<g>
	<g>
		<rect x="9.939" y="11.721" fill="#FFFFFF" width="1.125" height="1.125"/>
	</g>
</g>
<g>
	<g>
		<rect x="8.814" y="12.846" fill="#FFFFFF" width="1.125" height="1.125"/>
	</g>
</g>
<g>
	<g>
		<rect x="11.064" y="12.846" fill="#FFFFFF" width="1.125" height="1.125"/>
	</g>
</g>
<g>
	<g>
		<path fill="#FFFFFF" d="M13.876,12.846v1.125h-1.687v1.125h2.25c0.311,0,0.562-0.252,0.562-0.563v-1.687H13.876z"/>
	</g>
</g>
<g>
	<g>
		<rect x="9.939" y="13.971" fill="#FFFFFF" width="1.125" height="1.125"/>
	</g>
</g>
<g>
	<g>
		<rect x="13.313" y="17.345" fill="#FFFFFF" width="1.125" height="1.125"/>
	</g>
</g>
<g>
	<g>
		<rect x="11.064" y="15.096" fill="#FFFFFF" width="1.125" height="1.125"/>
	</g>
</g>
<g>
	<g>
		<polygon fill="#FFFFFF" points="11.064,17.345 11.064,16.22 9.939,16.22 9.939,17.345 8.814,17.345 8.814,18.47 12.189,18.47 
			12.189,17.345 		"/>
	</g>
</g>
<g>
	<g>
		<rect x="12.189" y="18.47" fill="#FFFFFF" width="1.125" height="1.125"/>
	</g>
</g>
</svg>
