<?xml version="1.0" encoding="utf-8"?>
<!-- Generator: Adobe Illustrator 16.0.0, SVG Export Plug-In . SVG Version: 6.00 Build 0)  -->
<!DOCTYPE svg PUBLIC "-//W3C//DTD SVG 1.1//EN" "http://www.w3.org/Graphics/SVG/1.1/DTD/svg11.dtd">
<svg version="1.1" id="Layer_1" xmlns="http://www.w3.org/2000/svg" xmlns:xlink="http://www.w3.org/1999/xlink" x="0px" y="0px"
	 width="39px" height="36.939px" viewBox="0 0 39 36.939" enable-background="new 0 0 39 36.939" xml:space="preserve">
<g transform="matrix(1.01 0 0 1.01 -2.48 -2.48)">
	<g>
		<g>
			<path fill="#FFFFFF" d="M32.841,34.343l-1.336-4.011c-0.468-1.401-1.659-2.434-3.112-2.699l-3.86-0.702v-0.3
				c0.672-0.389,1.256-0.911,1.722-1.529h1.165c0.955,0,1.734-0.776,1.734-1.732v-6.931c0-4.14-3.369-7.507-7.508-7.507
				c-4.14,0-7.508,3.367-7.508,7.507v4.043c0,1.113,0.792,2.045,1.842,2.263c0.324,1.659,1.361,3.064,2.778,3.886v0.3l-3.86,0.702
				c-1.452,0.265-2.644,1.298-3.111,2.699l-0.231,0.694l-1.967-1.969c-0.225-0.224-0.225-0.591,0-0.817l2.281-2.28l-4.281-4.281
				L5.01,24.257c-0.764,0.764-1.184,1.779-1.184,2.859s0.42,2.094,1.184,2.858l7.805,7.804c0.763,0.764,1.779,1.185,2.859,1.185
				c1.08,0,2.094-0.422,2.84-1.168l2.813-2.577l-0.877-0.876H32.841z M27.998,23.372c0,0.318-0.259,0.576-0.578,0.576h-0.485
				c0.168-0.381,0.294-0.784,0.377-1.202c0.247-0.052,0.474-0.151,0.686-0.275V23.372z M27.42,21.478v-1.989
				c0.343,0.2,0.578,0.569,0.578,0.994C27.998,20.909,27.763,21.277,27.42,21.478z M15.87,21.478
				c-0.344-0.201-0.577-0.569-0.577-0.995c0-0.425,0.233-0.794,0.577-0.994V21.478z M15.87,17.596v0.659
				c-0.205,0.054-0.398,0.134-0.577,0.24v-2.054c0-3.503,2.85-6.352,6.352-6.352c3.502,0,6.353,2.849,6.353,6.352v2.054
				c-0.18-0.105-0.372-0.187-0.578-0.24v-0.659h-0.576c-1.708,0-3.314-0.665-4.522-1.873l-0.676-0.676l-0.677,0.676
				c-1.208,1.208-2.813,1.873-4.521,1.873H15.87z M17.025,21.638v-2.909c1.734-0.13,3.351-0.846,4.62-2.052
				c1.269,1.206,2.885,1.922,4.619,2.052v2.909c0,0.842-0.229,1.63-0.625,2.31h-3.994v1.155h3.046
				c-0.814,0.716-1.88,1.155-3.046,1.155C19.098,26.259,17.025,24.186,17.025,21.638z M23.378,27.147v0.028l-1.733,1.732
				l-1.733-1.732v-0.028c0.548,0.171,1.129,0.266,1.733,0.266S22.831,27.318,23.378,27.147z M12.881,30.697
				c0.333-1.001,1.185-1.738,2.222-1.928l4.037-0.734l2.505,2.504l2.504-2.503l4.036,0.734c1.037,0.189,1.89,0.926,2.223,1.928
				l0.832,2.491H19.294l-2.249-2.25L14.546,33.2c-0.218,0.219-0.599,0.219-0.817,0l-1.261-1.262L12.881,30.697z M7.588,23.314
				l2.648,2.647l-0.627,0.627L6.96,23.94L7.588,23.314z M17.714,36.963c-0.545,0.544-1.271,0.845-2.042,0.845
				c-0.771,0-1.496-0.301-2.042-0.845l-7.805-7.806C5.28,28.613,4.98,27.887,4.98,27.116c0-0.771,0.3-1.497,0.845-2.042l0.318-0.317
				l2.649,2.649L8.77,27.426c-0.675,0.675-0.675,1.775,0,2.451l4.142,4.141c0.327,0.326,0.762,0.508,1.226,0.508
				c0.463,0,0.898-0.181,1.204-0.488L15.385,34l2.66,2.66L17.714,36.963z M18.897,35.877l-2.655-2.655l0.762-0.689l2.65,2.651
				L18.897,35.877z"/>
		</g>
	</g>
	<g>
		<g>
			<path fill="#FFFFFF" d="M37.815,3.159H29.73c-0.954,0-1.732,0.777-1.732,1.733v4.62c0,0.955,0.777,1.733,1.732,1.733h1.543
				l-0.597,3.482l5.572-3.482h1.566c0.955,0,1.734-0.777,1.734-1.733v-4.62C39.548,3.936,38.77,3.159,37.815,3.159z M38.393,9.511
				c0,0.318-0.26,0.578-0.578,0.578h-1.897l-3.668,2.292l0.393-2.292H29.73c-0.318,0-0.576-0.26-0.576-0.578v-4.62
				c0-0.318,0.258-0.578,0.576-0.578h8.085c0.318,0,0.578,0.26,0.578,0.578V9.511z"/>
		</g>
	</g>
	<g>
		<g>
			<rect x="30.308" y="5.469" fill="#FFFFFF" width="6.931" height="1.154"/>
		</g>
	</g>
	<g>
		<g>
			<rect x="30.308" y="7.778" fill="#FFFFFF" width="4.62" height="1.155"/>
		</g>
	</g>
	<g>
		<g>
			<rect x="36.083" y="7.778" fill="#FFFFFF" width="1.155" height="1.155"/>
		</g>
	</g>
	<g>
		<g>
			<path fill="#FFFFFF" d="M21.645,4.891C14.1,4.891,7.6,10.11,5.91,17.391l-1.095-1.825l-0.99,0.594l2.03,3.382l3.383-2.03
				l-0.594-0.991l-1.565,0.939c1.636-6.66,7.625-11.416,14.567-11.416c1.517,0,3.014,0.225,4.449,0.67l0.341-1.103
				C24.89,5.133,23.278,4.891,21.645,4.891z"/>
		</g>
	</g>
	<g>
		<g>
			<path fill="#FFFFFF" d="M39.266,15.945l-3.381-2.03l-2.03,3.383l0.991,0.594l1.01-1.684c0.532,1.556,0.803,3.184,0.803,4.853
				c0,3.435-1.189,6.792-3.347,9.453l0.896,0.728c2.326-2.866,3.607-6.483,3.607-10.181c0-1.767-0.283-3.492-0.838-5.143
				l1.696,1.018L39.266,15.945z"/>
		</g>
	</g>
</g>
</svg>
