<?xml version="1.0" encoding="utf-8"?>
<!-- Generator: Adobe Illustrator 16.0.0, SVG Export Plug-In . SVG Version: 6.00 Build 0)  -->
<!DOCTYPE svg PUBLIC "-//W3C//DTD SVG 1.1//EN" "http://www.w3.org/Graphics/SVG/1.1/DTD/svg11.dtd">
<svg version="1.1" id="Layer_1" xmlns="http://www.w3.org/2000/svg" xmlns:xlink="http://www.w3.org/1999/xlink" x="0px" y="0px"
	 width="39px" height="36.939px" viewBox="0 0 39 36.939" enable-background="new 0 0 39 36.939" xml:space="preserve">
<g>
	<g>
		<path fill="#FFFFFF" d="M36.846,3.752c-0.089-0.105-0.217-0.172-0.355-0.184l-7.75-0.663L28.6,1.789
			c-0.036-0.288-0.299-0.491-0.585-0.455l-7.189,0.904c-0.028-0.007-0.058-0.013-0.087-0.016l-9.882-0.844
			c-0.285-0.025-0.543,0.194-0.567,0.478l-0.146,1.725L2.488,4.544C2.205,4.579,1.998,4.845,2.034,5.129L5.94,36.204
			c0.018,0.141-0.013,0.277,0.045,0.414c0.082,0.193,0.274,0.321,0.483,0.321h25.727c0.29,0,0.524-0.234,0.524-0.525v-0.682
			l1.016,0.086c0.284,0.024,0.543-0.194,0.566-0.478l2.666-31.206C36.979,3.996,36.936,3.859,36.846,3.752z M5.944,27.829
			L3.139,5.519l2.805-0.353V27.829z M11.29,2.469l4.589,0.392l-4.672,0.587L11.29,2.469z M27.624,2.441l0.269,2.13H10.676
			L27.624,2.441z M33.302,34.73l-0.582-0.05V19.357c0-0.289-0.234-0.523-0.524-0.523c-0.289,0-0.524,0.234-0.524,0.523v16.534H6.993
			V5.619h24.678V16.91c0,0.291,0.235,0.525,0.524,0.525c0.29,0,0.524-0.234,0.524-0.525V5.095c0-0.289-0.234-0.524-0.524-0.524
			h-3.246L28.874,3.97l7.005,0.598L33.302,34.73z"/>
	</g>
</g>
<g>
	<g>
		<path fill="#FFFFFF" d="M29.398,7.367h-2.796c-0.175,0-0.339,0.087-0.436,0.233l-1.188,1.78c-1.277-0.915-2.842-1.454-4.528-1.454
			c-0.291,0-0.525,0.234-0.525,0.524v7.271c0,0.289,0.234,0.525,0.525,0.525h7.271c0.289,0,0.524-0.236,0.524-0.525
			c0-2.232-0.943-4.249-2.453-5.67l1.091-1.636h2.515c0.29,0,0.524-0.234,0.524-0.524S29.688,7.367,29.398,7.367z M27.177,15.198
			h-6.202V8.996c1.272,0.098,2.445,0.551,3.423,1.259l-0.468,0.702c-0.146,0.218-0.104,0.522,0.099,0.691
			c0.235,0.199,0.603,0.146,0.773-0.11l0.4-0.601C26.316,12.045,27.049,13.538,27.177,15.198z"/>
	</g>
</g>
<g>
	<g>
		<path fill="#FFFFFF" d="M29.398,24.705h-4.742l-0.836-1.338c1.354-1.402,2.188-3.31,2.188-5.409c0-0.29-0.235-0.524-0.524-0.524
			h-6.747v-6.747c0-0.29-0.234-0.524-0.523-0.524c-4.298,0-7.795,3.497-7.795,7.795s3.497,7.795,7.795,7.795
			c1.817,0,3.489-0.625,4.816-1.671l0.891,1.425c0.096,0.152,0.264,0.246,0.444,0.246h5.033c0.29,0,0.524-0.235,0.524-0.524
			C29.923,24.94,29.688,24.705,29.398,24.705z M22.014,20.478c-0.153-0.246-0.477-0.321-0.723-0.167
			c-0.246,0.153-0.319,0.478-0.166,0.722l1.346,2.155c-1.161,0.947-2.645,1.518-4.257,1.518c-3.72,0-6.747-3.026-6.747-6.747
			c0-3.543,2.746-6.458,6.222-6.726v6.726c0,0.291,0.234,0.525,0.524,0.525h6.726c-0.117,1.516-0.738,2.893-1.693,3.965
			L22.014,20.478z"/>
	</g>
</g>
<g>
	<g>
		<path fill="#FFFFFF" d="M13.739,27.501H9.265c-0.289,0-0.524,0.234-0.524,0.523c0,0.291,0.235,0.525,0.524,0.525h4.474
			c0.29,0,0.524-0.234,0.524-0.525C14.264,27.736,14.029,27.501,13.739,27.501z"/>
	</g>
</g>
<g>
	<g>
		<path fill="#FFFFFF" d="M20.451,27.501h-4.475c-0.289,0-0.524,0.234-0.524,0.523c0,0.291,0.235,0.525,0.524,0.525h4.475
			c0.289,0,0.523-0.234,0.523-0.525C20.975,27.736,20.74,27.501,20.451,27.501z"/>
	</g>
</g>
<g>
	<g>
		<path fill="#FFFFFF" d="M16.536,30.298H9.265c-0.289,0-0.524,0.234-0.524,0.523c0,0.291,0.235,0.525,0.524,0.525h7.271
			c0.29,0,0.524-0.234,0.524-0.525C17.06,30.532,16.825,30.298,16.536,30.298z"/>
	</g>
</g>
<g>
	<g>
		<path fill="#FFFFFF" d="M20.451,30.298h-1.679c-0.289,0-0.524,0.234-0.524,0.523c0,0.291,0.235,0.525,0.524,0.525h1.679
			c0.289,0,0.523-0.234,0.523-0.525C20.975,30.532,20.74,30.298,20.451,30.298z"/>
	</g>
</g>
<g>
	<g>
		<path fill="#FFFFFF" d="M11.502,33.094H9.265c-0.289,0-0.524,0.234-0.524,0.524s0.235,0.524,0.524,0.524h2.237
			c0.29,0,0.525-0.234,0.525-0.524S11.792,33.094,11.502,33.094z"/>
	</g>
</g>
<g>
	<g>
		<path fill="#FFFFFF" d="M20.451,33.094h-6.712c-0.29,0-0.524,0.234-0.524,0.524s0.235,0.524,0.524,0.524h6.712
			c0.289,0,0.523-0.234,0.523-0.524S20.74,33.094,20.451,33.094z"/>
	</g>
</g>
</svg>
